# xmcd CD database file
#
# Track frame offsets:
#	150
#	18632
#	50517
#	91404
#	116100
#	142689
#	165445
#
# Disc length: 2502 seconds
#
# Revision: 0
# Processed by: cddbd v1.5.2PL0 Copyright (c) Steve Scherf et al.
# Submitted via: CDex 1.70beta2
#
DISCID=5309c407
DTITLE=Hubbard, Freddie - Gettin' it together 1960
DYEAR=1960
DGENRE=Jazz
TTITLE0=Chantized
TTITLE1=Flutie
TTITLE2=If I were a bell
TTITLE3=But beautiful
TTITLE4=Do I love you
TTITLE5=The court
TTITLE6=Mr. L
EXTD=YEAR: 1960
EXTT0=
EXTT1=
EXTT2=
EXTT3=
EXTT4=
EXTT5=
EXTT6=
PLAYORDER=
